0
SECTION
2
HEADER
9
$INSUNITS
70
4
9
$ACADVER
1
AC1014
9
$HANDSEED
5
FFFF
0
ENDSEC
0
SECTION
2
TABLES
0
TABLE
2
VPORT
5
8
100
AcDbSymbolTable
0
ENDTAB
0
TABLE
2
LTYPE
5
5
100
AcDbSymbolTable
0
LTYPE
5
14
100
AcDbSymbolTableRecord
100
AcDbLinetypeTableRecord
2
BYBLOCK
70
0
0
LTYPE
5
15
100
AcDbSymbolTableRecord
100
AcDbLinetypeTableRecord
2
BYLAYER
70
0
0
ENDTAB
0
TABLE
2
LAYER
5
2
100
AcDbSymbolTable
70
2
0
LAYER
5
50
100
AcDbSymbolTableRecord
100
AcDbLayerTableRecord
2
0
70
0
6
CONTINUOUS
0
ENDTAB
0
TABLE
2
STYLE
5
3
100
AcDbSymbolTable
70
1
0
STYLE
5
11
100
AcDbSymbolTableRecord
100
AcDbTextStyleTableRecord
2
STANDARD
70
0
0
ENDTAB
0
TABLE
2
VIEW
5
6
100
AcDbSymbolTable
70
0
0
ENDTAB
0
TABLE
2
UCS
5
7
100
AcDbSymbolTable
70
0
0
ENDTAB
0
TABLE
2
APPID
5
9
100
AcDbSymbolTable
70
2
0
APPID
5
12
100
AcDbSymbolTableRecord
100
AcDbRegAppTableRecord
2
ACAD
70
0
0
ENDTAB
0
TABLE
2
DIMSTYLE
5
A
100
AcDbSymbolTable
70
1
0
ENDTAB
0
TABLE
2
BLOCK_RECORD
5
1
100
AcDbSymbolTable
70
1
0
BLOCK_RECORD
5
1F
100
AcDbSymbolTableRecord
100
AcDbBlockTableRecord
2
*MODEL_SPACE
0
BLOCK_RECORD
5
1B
100
AcDbSymbolTableRecord
100
AcDbBlockTableRecord
2
*PAPER_SPACE
0
ENDTAB
0
ENDSEC
0
SECTION
2
BLOCKS
0
BLOCK
5
20
100
AcDbEntity
100
AcDbBlockBegin
2
*MODEL_SPACE
0
ENDBLK
5
21
100
AcDbEntity
100
AcDbBlockEnd
0
BLOCK
5
1C
100
AcDbEntity
100
AcDbBlockBegin
2
*PAPER_SPACE
0
ENDBLK
5
1D
100
AcDbEntity
100
AcDbBlockEnd
0
ENDSEC
0
SECTION
2
ENTITIES
0
LWPOLYLINE
5
100
100
AcDbEntity
8
0
100
AcDbPolyline
90
4
70
1
43
0.0
10
-20.647518010647143
20
-74.777481989352808
10
3.5527136788005009e-14
20
-54.129963978705611
10
20.647518010647143
20
-74.777481989352808
10
6.2172489379008766e-14
20
-95.425000000000011
0
LWPOLYLINE
5
101
100
AcDbEntity
8
0
100
AcDbPolyline
90
4
70
1
43
0.0
10
-99.185000000000016
20
91.249999999999972
10
-53.125
20
91.249999999999972
10
-53.124999999999986
20
61.949999999999989
10
-99.185000000000016
20
61.949999999999967
0
LWPOLYLINE
5
102
100
AcDbEntity
8
0
100
AcDbPolyline
90
4
70
1
43
0.0
10
-9.2499999999999805
20
28.599999999999994
10
-9.2499999999999609
20
-28.600000000000001
10
-66.449999999999946
20
-28.60000000000003
10
-66.44999999999996
20
28.599999999999977
0
LWPOLYLINE
5
103
100
AcDbEntity
8
0
100
AcDbPolyline
90
4
70
1
43
0.0
10
85.330000000000013
20
-28.600000000000001
10
85.330000000000013
20
28.599999999999994
10
142.53000000000003
20
28.599999999999994
10
142.53000000000003
20
-28.600000000000001
0
CIRCLE
5
104
100
AcDbEntity
8
0
100
AcDbCircle
10
180.34999999999999
20
-66.599999999999994
30
0
40
16.000000000000014
210
0
220
0
230
1
0
LWPOLYLINE
5
105
100
AcDbEntity
8
0
100
AcDbPolyline
90
4
70
1
43
0.0
10
-85.329999999999984
20
28.599999999999959
10
-85.329999999999984
20
-28.60000000000003
10
-142.52999999999997
20
-28.600000000000058
10
-142.52999999999997
20
28.599999999999941
0
CIRCLE
5
106
100
AcDbEntity
8
0
100
AcDbCircle
10
-180.34999999999994
20
-66.600000000000065
30
0
40
16.000000000000014
210
0
220
0
230
1
0
LWPOLYLINE
5
107
100
AcDbEntity
8
0
100
AcDbPolyline
90
4
70
1
43
0.0
10
66.449999999999989
20
-28.600000000000001
10
9.2500000000000071
20
-28.600000000000001
10
9.2500000000000071
20
28.599999999999994
10
66.449999999999989
20
28.599999999999994
0
LWPOLYLINE
5
108
100
AcDbEntity
8
0
100
AcDbPolyline
90
4
70
1
43
0.0
10
99.185000000000016
20
61.950000000000003
10
53.125
20
61.950000000000003
10
53.125
20
91.25
10
99.185000000000016
20
91.25
0
LWPOLYLINE
5
109
100
AcDbEntity
8
0
100
AcDbPolyline
90
8
70
1
43
0.0
10
-207.99999999999989
20
-115.42500000000005
10
208.00000000000006
20
-115.42500000000001
42
0.41421356237309503
10
219.99999999999997
20
-103.42500000000007
10
220
20
92.575000000000017
42
0.41421356237309631
10
208
20
104.57499999999999
10
-208.00000000000006
20
104.57499999999993
42
0.4142135623730937
10
-219.99999999999994
20
92.574999999999946
10
-219.99999999999986
20
-103.42500000000015
42
0.41421356237309465
0
ENDSEC
0
SECTION
2
OBJECTS
0
DICTIONARY
5
C
100
AcDbDictionary
3
ACAD_GROUP
350
D
3
ACAD_MLINESTYLE
350
17
0
DICTIONARY
5
D
100
AcDbDictionary
0
DICTIONARY
5
1A
330
C
100
AcDbDictionary
0
DICTIONARY
5
17
100
AcDbDictionary
0
ENDSEC
0
EOF
